<?xml version="1.0" encoding="utf-8"?>
<!-- Generator: Adobe Illustrator 28.0.0, SVG Export Plug-In . SVG Version: 6.00 Build 0)  -->
<svg version="1.1" id="Capa_1" xmlns="http://www.w3.org/2000/svg" xmlns:xlink="http://www.w3.org/1999/xlink" x="0px" y="0px"
	 viewBox="0 0 500 218" style="enable-background:new 0 0 500 218;" xml:space="preserve">
<style type="text/css">
	.st0{fill:#81D15E;}
	.st1{fill:#F83C3C;}
</style>
<path class="st0" d="M388.62,186.23c-8.29,5.3-21.27,5.98-30.98,2.36c-13.5-5.01-24.63-17.4-25.63-29.9
	c-3.36,11.73-10.39,17.86-17.97,18.57c-6.8,0.88-13.29-3.07-15.63-9.51c-3.47-7.77-4.3-18.17-1.96-32.75
	c2.85-17.63,8.09-36.57,16.49-36.54c6.49,0,10.62,6.01,6.89,13.56c-5.73,11.43-9.01,23.93-9.63,36.71
	c-0.26,10.2,1.82,13.61,6.55,13.33c6.52-0.37,9.74-10.54,12.87-28.31c2.39-12.19,3.05-24.65,1.96-37.02
	c-0.68-7.23,2.85-13.64,9.91-13.33c4.44,0.2,10.14,2.85,10.05,12.42c-0.97,15.58-3.59,31.02-7.83,46.05
	c-1.6,5.03-2.55,10.25-2.85,15.52c-0.22,5.86,2.27,11.48,6.75,15.26c4.71,3.76,10.58,5.77,16.6,5.7c6.22,0.28,12.23-2.29,16.32-6.98
	c3.73-3.99,7.4-3.9,10.22-2.11c4.81,3.16,4.58,12.56-2.11,16.86 M270.55,101.45c-1.77,0.88-2.65,2.65-1.96,5.7
	c1.29,6.56,1.68,13.27,1.14,19.93c-0.63,8.23-1.05,12.73-2.14,20.16c-1.65,11.39-4.9,17.31-5.04,24.46
	c-0.14,7.15,4.16,10.42,8.71,10.59c5.64,0.23,10.42-4.13,10.71-9.77c1.03-14.01-1.57-21.7,1.82-38.7
	c1.95-10.52,5.81-20.6,11.39-29.73c3.62-6.6,9.68-11.53,16.89-13.73c10.39-2.59,12.13-10,9.54-15.18
	c-2.47-5.01-8.53-7.06-13.54-4.59c-0.04,0.02-0.09,0.04-0.13,0.07c-8.23,3.76-14.52,15.89-18.57,25.63
	c-1.9,4.43-3.54,8.97-4.93,13.58c-0.4,1.42-1.65,1.4-2.22,0c-0.52-1.31-1.13-2.59-1.82-3.82c-2.51-4.41-6.41-6.44-9.88-4.67
	 M414.56,151.6c-0.45-1.71-1.67-3.11-3.3-3.79c-3.42-1.65-6.15-4.44-6.98-13.64c-1.11-20.7,0.62-41.46,5.15-61.68
	c0,0,83.24-9.48,89.34-55.05c1.34-10.02-3.45-14.89-8.14-15.83c-8.14-1.62-11.73,5.07-12.56,11.76
	C474.85,39,445.52,59.7,410.89,63.97c1.88-6.88,3.37-13.86,4.47-20.9c0.37-6.09-5.9-6.01-8.89,2.14c-1.96,5.44-8.4,21.1-15.66,22.53
	c-2.82,0.51-5.68,0.85-8.54,1c0.14-1.28,0.54-3.99,0.65-6.12c0.17-2.85-0.94-4.02-2.85-4.3c-2.28-0.37-4.44,0.88-5.87,4.16
	c-2.16,4.98-6.15,7.38-14.78,8.09c-9.37,0.77-11.39-1.82-16.86-6.27c-2.81-2.41-6.15-4.12-9.74-5.01c-4.84-1.08-8.54,0.37-9.83,3.84
	c-1.74,4.27,0.46,9.85,6.21,12.5c10.82,4.93,28.19,2.39,36.31,1.42c2.08-0.26,3.62,2.31,2.85,5.44
	c-2.62,11.39-4.21,17.34-7.12,29.05c-3.73,15.07-8.2,29.33-7.52,40.55c0.63,10.62,6.09,16.66,14.24,17.8
	c9,1.31,16.03-6.12,15.26-12.22c-0.29-1.7-1.34-3.18-2.85-4.02c-4.24-2.36-5.92-3.13-6.52-14.75c-0.83-15.83,1.74-37.02,7.29-62.65
	c4.84-0.46,7.72-0.91,12.5-1.4c2.56-0.26,3.65,0.31,2.85,2.85c-6.81,21.93-12.39,56.19-10.68,71.99c0.97,9.17,5.7,15.86,15.44,15.26
	c8.14-0.51,14.89-6.81,13.36-13.33 M437.69,153.51c4.97-0.43,9.53-2.96,12.53-6.95c0.25,0.2,0.52,0.37,0.8,0.51
	c4.12,2.42,8.78,3.76,13.56,3.9c6.99,0.05,13.58-3.24,17.74-8.86c6.75-9.57,8.8-25.97,5.1-35.54c-1.62-4.19-5.13-7.55-10.34-5.7
	c-5.21,1.85-5.41,8.54-3.16,12.99c1.74,3.97,2.85,8.19,3.27,12.5c0.8,4.14,0.33,8.43-1.34,12.3c-1.71,2.94-5,4.58-8.37,4.19
	c-2.85,0-5.87-2.05-7.52-7.06c-1.75-5.3-2.39-10.9-1.88-16.46c0.68-7.47,2.05-14.86,4.1-22.07c2.05-6.08,1.57-12.73-1.34-18.45
	c-3.22-5.7-9.83-8.97-18.2-7.86c-18.48,2.39-31.13,32.72-29.76,55.99c1.03,17.77,11.9,27.6,24.72,26.54 M429.8,113.27
	c1-10.51,4.81-23.47,9.2-30.07c1.4-2.59,4.09-4.24,7.03-4.3c2.58,0.29,4.58,2.41,4.7,5.01c0.48,3.33-0.6,8.2-3.76,16.49
	c-4.04,10.27-5.03,21.48-2.85,32.29c0.92,3.37-1.07,6.84-4.44,7.76c-0.65,0.18-1.32,0.25-2,0.21c-8.8-1-8.54-18.31-7.8-27.4
	 M257.42,83.14c0,0,15.66-1.37,20.76-0.97c5.1,0.4,7.38,9.94,1.88,10.59c-4.64,0.54-21.47,0.91-21.47,0.91
	c1.79,44.65-1.28,78.91-7.58,94.83c-7.06,17.83-22.78,28.96-39.87,28.08c-15.66-0.8-17.34-16.57-8.37-28.85
	c10.34-14.24,20.9-19.93,27.08-15.92c4.36,2.85,5.07,9.68-3.73,14.07c-12.7,6.35-17.09,10.48-18.48,14.5s1.85,7.49,6.92,6.81
	c10.94-1.42,19.93-11.82,23.41-25.94c4.64-19.39,5.95-42.43,2.85-86.92c-5.01,0.54-10.08,0.91-17.46,1.03
	c-8.54,0-6.55-7.77-1.2-8.54c6.49-0.77,11.68-1.05,17.6-1.88c-1.85-24.78-3.67-57.87,10.54-70.48c6.55-5.7,15.78-7.14,23.75-3.7
	c9.37,4.07,6.29,16.75-1.2,15.38c-9.2-1.68-10.88,4.3-12.76,12.25c-1.99,8.54-3.42,23.07-2.85,44.68"/>
<path class="st1" d="M86.83,104.53c18.34-8.71,36.45-22.64,40.04-38.87c4.39-19.68-3.93-37.73-22.1-41.01
	c-27.54-4.98-47.93,13.73-53,43.57c-1.91,11.14-0.63,22.53,2.22,37.25c-3.38,0.69-6.83,1.03-10.28,1.03
	c-9.97-0.23-23.92-4.81-30.59-6.21c-6.66-1.4-11.08,0.54-11.96,4.44c-0.72,3.47,0.91,7.01,4.02,8.71c4.38,1.95,9.08,3.08,13.87,3.33
	c12.31,0.99,24.69,0.41,36.85-1.74c0.6,3.02,1.17,6.21,1.71,9.51c3.76,22.78,5.18,44.14-5.35,74.04
	c-2.56,7.32,0.74,11.99,7.18,11.85c4.76-0.29,8.8-3.61,10-8.23c10.22-29.99,3.08-76.52,0.28-90.9c5.83-1.9,11.54-4.16,17.09-6.78
	 M67.87,65.23c4.93-12.56,17.51-23.89,31.87-21.99c7.29,0.97,15.15,5.7,13.73,18.25c-1.62,14.24-11.9,23.98-21.9,29.73
	c-7.7,4.41-15.87,7.95-24.35,10.57C64.73,89.43,64.36,73.89,67.87,65.23 M167.14,181.31c-3.49,3.79-8.03,6.44-13.04,7.6
	c-6.35,1.2-12.88,1.09-19.19-0.31c-5.53-1.46-10.49-4.54-14.24-8.86c-3.87-4.71-5.6-10.82-4.78-16.86
	c-3.39,11.76-9.2,18.45-16.77,19.14c-6.93,0.88-13.57-3.08-16.09-9.6c-3.47-7.77-4.27-18.2-1.96-32.75
	c2.85-17.66,7.21-32.41,15.61-32.41c6.46,0,10.59,6.01,6.89,13.56c-5.42,10.06-8.38,21.27-8.63,32.69
	c-0.28,10.2,2.22,13.61,6.95,13.33c6.52-0.4,10.31-10.54,13.44-28.31c2.28-11.48,2.79-23.25,1.51-34.89
	c-0.68-7.23,2.85-13.61,9.91-13.3c4.44,0.2,10.14,2.85,10.08,12.42c0,8.54-4.04,27.31-8.74,43.4c-7.43,25.63-0.46,31.53,7.66,33.35
	c7.78,1.76,15.86-1.33,20.48-7.83c2.47-3.78,7.53-4.85,11.31-2.38c0.13,0.09,0.27,0.18,0.39,0.27c2.51,1.94,3.42,7.72-0.85,11.85
	 M235.4,123.1c-1.4-3.96-5.7-7.86-10.57-6.18c-4.5,1.54-5.7,7.63-3.87,11.39c1.82,3.76,4.53,7.06,4.9,10.65
	c0.57,4.13-0.22,8.34-2.25,11.99c-2.02,2.65-5.22,4.12-8.54,3.93c-2.96,0.03-5.59-1.88-6.49-4.7c-1.06-4.73-1.24-9.62-0.51-14.41
	c0.8-7.6,2.45-15.09,4.93-22.33c7.03-20.11-5.21-26.4-15.26-25.63c-21.33,1.59-34.17,22.53-35.54,51.83
	c-0.83,15.95,7.23,28.71,22.78,27.97c5.04-0.44,9.69-2.93,12.84-6.89c4.33,3.64,10.04,5.17,15.61,4.19
	c5.58-1.03,10.58-4.07,14.07-8.54c7.83-9.74,11.02-24.89,7.95-33.55 M185.8,154.14c-8.54-0.97-6.98-16.38-5.7-25.09
	c1.49-9.43,4.67-18.51,9.4-26.8c2.48-3.82,5.44-7.32,9.74-6.64c2.62,0.4,4.16,2.85,3.05,7.63c-1.15,4.61-2.65,9.14-4.47,13.53
	c-4.36,10.88-6.46,24.78-4.13,33.26c0.43,1.57-3.65,4.64-7.89,4.13 M142.37,124.8c1.25-6.72,1.86-13.55,1.82-20.39
	c-0.26-7.86-1.48-11.9,1.79-13.47c2.68-1.28,4.96,0.43,6.64,2.56c1.32,1.88,2.38,3.93,3.13,6.09c8.37-14.24,22.1-33.8,36.05-33.75
	c8,0,10.68,3.47,10.91,7.77c0.23,4.3-3.13,7.52-10.62,8.69c-9.51,1.62-15.75,4.73-20.19,9.17c-6.86,6.89-13.61,21.27-15.92,31.9
	c-3.62,17.09-3.1,27.54-4.16,41.55c-0.91,12.5-20.99,12.79-17.74-1.48c3.45-15.01,4.56-19.08,8.29-38.76"/>
</svg>
